ply
format ascii 1.0
comment File exported by Rhinoceros Version 8
element vertex 528
property float x
property float y
property float z
property uchar red
property uchar green
property uchar blue
element face 240
property list uchar uint vertex_indices
end_header
0.6666666865348816 -0.6666666865348816 3.3333332538604736 56 85 99
2 1 4 56 85 99
1.3333333730697632 2.6666667461395264 5.333333492279053 56 85 99
-1.3333333730697632 1.3333333730697632 5.333333492279053 56 85 99
1.3333333730697632 2.6666667461395264 5.333333492279053 56 85 99
-0.6666666865348816 4.666666507720947 3.3333332538604736 56 85 99
1 4 2 56 85 99
2.6666667461395264 2.6666667461395264 2.6666667461395264 56 85 99
-0.6666666865348816 4.666666507720947 3.3333332538604736 56 85 99
-2 3 4 56 85 99
-2.6666667461395264 1.3333333730697632 2.6666667461395264 56 85 99
-0.6666666865348816 3.3333332538604736 0.6666666865348816 56 85 99
2.6666667461395264 2.6666667461395264 2.6666667461395264 56 85 99
1 4 2 56 85 99
-0.6666666865348816 3.3333332538604736 0.6666666865348816 56 85 99
0.6666666865348816 0.6666666865348816 0.6666666865348816 56 85 99
0.6666666865348816 -0.6666666865348816 3.3333332538604736 56 85 99
2 1 4 56 85 99
2.6666667461395264 2.6666667461395264 2.6666667461395264 56 85 99
0.6666666865348816 0.6666666865348816 0.6666666865348816 56 85 99
-1.3333333730697632 1.3333333730697632 5.333333492279053 56 85 99
1.3333333730697632 2.6666667461395264 5.333333492279053 56 85 99
-0.6666666865348816 4.666666507720947 3.3333332538604736 56 85 99
-2 3 4 56 85 99
0.6666666865348816 -0.6666666865348816 3.3333332538604736 56 85 99
-1.3333333730697632 1.3333333730697632 5.333333492279053 56 85 99
-2.6666667461395264 1.3333333730697632 2.6666667461395264 56 85 99
-1 4.440892164675075E-17 2 56 85 99
-0.6666666865348816 3.3333332538604736 0.6666666865348816 56 85 99
-2.6666667461395264 1.3333333730697632 2.6666667461395264 56 85 99
0.6666666865348816 0.6666666865348816 0.6666666865348816 56 85 99
-1 4.440892164675075E-17 2 56 85 99
0.6666666865348816 -0.6666666865348816 3.3333332538604736 56 85 99
-1 4.440892164675075E-17 2 56 85 99
0.6666666865348816 0.6666666865348816 0.6666666865348816 56 85 99
-2.6666667461395264 1.3333333730697632 2.6666667461395264 56 85 99
-2 3 4 56 85 99
-1.3333333730697632 1.3333333730697632 5.333333492279053 56 85 99
1.3333333730697632 2.6666667461395264 5.333333492279053 56 85 99
2 1 4 56 85 99
2.6666667461395264 2.6666667461395264 2.6666667461395264 56 85 99
-0.6666666865348816 4.666666507720947 3.3333332538604736 56 85 99
1 4 2 56 85 99
-0.6666666865348816 3.3333332538604736 0.6666666865348816 56 85 99
0.6666666865348816 7.333333492279053 3.3333332538604736 242 201 76
2.6666667461395264 5.333333492279053 1.3333333730697632 242 201 76
1 4 2 242 201 76
-0.6666666865348816 4.666666507720947 3.3333332538604736 242 201 76
-1.3333333730697632 6.666666507720947 -1.3333333730697632 242 201 76
-2 5 -1.1250259841696095E-15 242 201 76
-0.6666666865348816 3.3333332538604736 0.6666666865348816 242 201 76
1.3333333730697632 5.333333492279053 -1.3333333730697632 242 201 76
-2.6666667461395264 6.666666507720947 1.3333333730697632 242 201 76
-1 8 2 242 201 76
0.6666666865348816 8.666666984558105 0.6666666865348816 242 201 76
-1.3333333730697632 6.666666507720947 -1.3333333730697632 242 201 76
0.6666666865348816 7.333333492279053 3.3333332538604736 242 201 76
2.6666667461395264 5.333333492279053 1.3333333730697632 242 201 76
2 7 -3.256654276153205E-16 242 201 76
0.6666666865348816 8.666666984558105 0.6666666865348816 242 201 76
-0.6666666865348816 3.3333332538604736 0.6666666865348816 242 201 76
-2 5 -1.1250259841696095E-15 242 201 76
-2.6666667461395264 6.666666507720947 1.3333333730697632 242 201 76
-0.6666666865348816 4.666666507720947 3.3333332538604736 242 201 76
-0.6666666865348816 4.666666507720947 3.3333332538604736 242 201 76
0.6666666865348816 7.333333492279053 3.3333332538604736 242 201 76
-1 8 2 242 201 76
-2.6666667461395264 6.666666507720947 1.3333333730697632 242 201 76
1 4 2 242 201 76
2.6666667461395264 5.333333492279053 1.3333333730697632 242 201 76
1.3333333730697632 5.333333492279053 -1.3333333730697632 242 201 76
-0.6666666865348816 3.3333332538604736 0.6666666865348816 242 201 76
1.3333333730697632 5.333333492279053 -1.3333333730697632 242 201 76
-1.3333333730697632 6.666666507720947 -1.3333333730697632 242 201 76
0.6666666865348816 8.666666984558105 0.6666666865348816 242 201 76
2 7 -3.256654276153205E-16 242 201 76
-1.3333333730697632 6.666666507720947 -1.3333333730697632 242 201 76
-2 5 -1.1250259841696095E-15 242 201 76
-2.6666667461395264 6.666666507720947 1.3333333730697632 242 201 76
-0.6666666865348816 4.666666507720947 3.3333332538604736 242 201 76
1 4 2 242 201 76
-0.6666666865348816 3.3333332538604736 0.6666666865348816 242 201 76
-1 8 2 242 201 76
0.6666666865348816 8.666666984558105 0.6666666865348816 242 201 76
0.6666666865348816 7.333333492279053 3.3333332538604736 242 201 76
2 7 -3.256654276153205E-16 242 201 76
2.6666667461395264 5.333333492279053 1.3333333730697632 242 201 76
1.3333333730697632 5.333333492279053 -1.3333333730697632 242 201 76
1.3333333730697632 -2.6666667461395264 6.666666507720947 181 123 204
2 -1 8 181 123 204
0.6666666865348816 0.6666666865348816 8.666666984558105 181 123 204
-1.3333333730697632 -1.3333333730697632 6.666666507720947 181 123 204
3.3333332538604736 -0.6666666865348816 4.666666507720947 181 123 204
1.3333333730697632 -2.6666667461395264 6.666666507720947 181 123 204
-6.957397868035591E-16 -2 5 181 123 204
0.6666666865348816 -0.6666666865348816 3.3333332538604736 181 123 204
1.3333333730697632 -2.6666667461395264 6.666666507720947 181 123 204
2 -1 8 181 123 204
3.3333332538604736 -0.6666666865348816 4.666666507720947 181 123 204
3.3333332538604736 0.6666666865348816 7.333333492279053 181 123 204
-1.3333333730697632 1.3333333730697632 5.333333492279053 181 123 204
0.6666666865348816 -0.6666666865348816 3.3333332538604736 181 123 204
2 1 4 181 123 204
1.3333333730697632 2.6666667461395264 5.333333492279053 181 123 204
0.6666666865348816 -0.6666666865348816 3.3333332538604736 181 123 204
-6.957397868035591E-16 -2 5 181 123 204
-1.3333333730697632 1.3333333730697632 5.333333492279053 181 123 204
-1.3333333730697632 -1.3333333730697632 6.666666507720947 181 123 204
0.6666666865348816 0.6666666865348816 8.666666984558105 181 123 204
-1.3333333730697632 -1.3333333730697632 6.666666507720947 181 123 204
-1.3333333730697632 1.3333333730697632 5.333333492279053 181 123 204
1.4802974433703992E-17 2 7 181 123 204
0.6666666865348816 0.6666666865348816 8.666666984558105 181 123 204
1.4802974433703992E-17 2 7 181 123 204
1.3333333730697632 2.6666667461395264 5.333333492279053 181 123 204
3.3333332538604736 0.6666666865348816 7.333333492279053 181 123 204
3.3333332538604736 0.6666666865348816 7.333333492279053 181 123 204
3.3333332538604736 -0.6666666865348816 4.666666507720947 181 123 204
2 1 4 181 123 204
1.3333333730697632 2.6666667461395264 5.333333492279053 181 123 204
-1.3333333730697632 1.3333333730697632 5.333333492279053 181 123 204
1.4802974433703992E-17 2 7 181 123 204
1.3333333730697632 2.6666667461395264 5.333333492279053 181 123 204
-6.957397868035591E-16 -2 5 181 123 204
1.3333333730697632 -2.6666667461395264 6.666666507720947 181 123 204
-1.3333333730697632 -1.3333333730697632 6.666666507720947 181 123 204
0.6666666865348816 -0.6666666865348816 3.3333332538604736 181 123 204
2 1 4 181 123 204
3.3333332538604736 -0.6666666865348816 4.666666507720947 181 123 204
2 -1 8 181 123 204
0.6666666865348816 0.6666666865348816 8.666666984558105 181 123 204
3.3333332538604736 0.6666666865348816 7.333333492279053 181 123 204
1.3333333730697632 5.333333492279053 -1.3333333730697632 63 191 127
2.6666667461395264 5.333333492279053 1.3333333730697632 63 191 127
1 4 2 63 191 127
-0.6666666865348816 3.3333332538604736 0.6666666865348816 63 191 127
2.6666667461395264 2.6666667461395264 2.6666667461395264 63 191 127
4 2 1 63 191 127
4.666666507720947 3.3333332538604736 -0.6666666865348816 63 191 127
2.6666667461395264 5.333333492279053 1.3333333730697632 63 191 127
2.6666667461395264 2.6666667461395264 2.6666667461395264 63 191 127
4 2 1 63 191 127
3.3333332538604736 0.6666666865348816 -0.6666666865348816 63 191 127
0.6666666865348816 0.6666666865348816 0.6666666865348816 63 191 127
2.6666667461395264 5.333333492279053 1.3333333730697632 63 191 127
1.3333333730697632 5.333333492279053 -1.3333333730697632 63 191 127
4.666666507720947 3.3333332538604736 -0.6666666865348816 63 191 127
3 4 -2 63 191 127
0.6666666865348816 0.6666666865348816 0.6666666865348816 63 191 127
3.3333332538604736 0.6666666865348816 -0.6666666865348816 63 191 127
1.3333333730697632 2.6666667461395264 -2.6666667461395264 63 191 127
3.4046838715977345E-16 2 -1 63 191 127
1.3333333730697632 5.333333492279053 -1.3333333730697632 63 191 127
-0.6666666865348816 3.3333332538604736 0.6666666865348816 63 191 127
3.4046838715977345E-16 2 -1 63 191 127
1.3333333730697632 2.6666667461395264 -2.6666667461395264 63 191 127
-0.6666666865348816 3.3333332538604736 0.6666666865348816 63 191 127
1 4 2 63 191 127
2.6666667461395264 2.6666667461395264 2.6666667461395264 63 191 127
0.6666666865348816 0.6666666865348816 0.6666666865348816 63 191 127
3 4 -2 63 191 127
4.666666507720947 3.3333332538604736 -0.6666666865348816 63 191 127
3.3333332538604736 0.6666666865348816 -0.6666666865348816 63 191 127
1.3333333730697632 2.6666667461395264 -2.6666667461395264 63 191 127
0.6666666865348816 0.6666666865348816 0.6666666865348816 63 191 127
3.4046838715977345E-16 2 -1 63 191 127
-0.6666666865348816 3.3333332538604736 0.6666666865348816 63 191 127
4 2 1 63 191 127
4.666666507720947 3.3333332538604736 -0.6666666865348816 63 191 127
3.3333332538604736 0.6666666865348816 -0.6666666865348816 63 191 127
2.6666667461395264 5.333333492279053 1.3333333730697632 63 191 127
1 4 2 63 191 127
2.6666667461395264 2.6666667461395264 2.6666667461395264 63 191 127
3 4 -2 63 191 127
1.3333333730697632 5.333333492279053 -1.3333333730697632 63 191 127
1.3333333730697632 2.6666667461395264 -2.6666667461395264 63 191 127
2.6666667461395264 5.333333492279053 1.3333333730697632 135 206 235
4 6 3 135 206 235
3.3333332538604736 7.333333492279053 4.666666507720947 135 206 235
0.6666666865348816 7.333333492279053 3.3333332538604736 135 206 235
2.6666667461395264 5.333333492279053 1.3333333730697632 135 206 235
4 6 3 135 206 235
4.666666507720947 4.666666507720947 4.666666507720947 135 206 235
2.6666667461395264 2.6666667461395264 2.6666667461395264 135 206 235
4.666666507720947 4.666666507720947 4.666666507720947 135 206 235
2.6666667461395264 2.6666667461395264 2.6666667461395264 135 206 235
1.3333333730697632 2.6666667461395264 5.333333492279053 135 206 235
3 4 6 135 206 235
1.3333333730697632 2.6666667461395264 5.333333492279053 135 206 235
-0.6666666865348816 4.666666507720947 3.3333332538604736 135 206 235
4.440892164675075E-17 6 5 135 206 235
1.3333333730697632 5.333333492279053 6.666666507720947 135 206 235
1.3333333730697632 2.6666667461395264 5.333333492279053 135 206 235
2.6666667461395264 2.6666667461395264 2.6666667461395264 135 206 235
-0.6666666865348816 4.666666507720947 3.3333332538604736 135 206 235
1 4 2 135 206 235
2.6666667461395264 5.333333492279053 1.3333333730697632 135 206 235
0.6666666865348816 7.333333492279053 3.3333332538604736 135 206 235
-0.6666666865348816 4.666666507720947 3.3333332538604736 135 206 235
1 4 2 135 206 235
3 4 6 135 206 235
4.666666507720947 4.666666507720947 4.666666507720947 135 206 235
1.3333333730697632 5.333333492279053 6.666666507720947 135 206 235
3.3333332538604736 7.333333492279053 4.666666507720947 135 206 235
3.3333332538604736 7.333333492279053 4.666666507720947 135 206 235
0.6666666865348816 7.333333492279053 3.3333332538604736 135 206 235
4.440892164675075E-17 6 5 135 206 235
1.3333333730697632 5.333333492279053 6.666666507720947 135 206 235
3 4 6 135 206 235
1.3333333730697632 2.6666667461395264 5.333333492279053 135 206 235
1.3333333730697632 5.333333492279053 6.666666507720947 135 206 235
3.3333332538604736 7.333333492279053 4.666666507720947 135 206 235
4 6 3 135 206 235
4.666666507720947 4.666666507720947 4.666666507720947 135 206 235
2.6666667461395264 2.6666667461395264 2.6666667461395264 135 206 235
1 4 2 135 206 235
2.6666667461395264 5.333333492279053 1.3333333730697632 135 206 235
4.440892164675075E-17 6 5 135 206 235
-0.6666666865348816 4.666666507720947 3.3333332538604736 135 206 235
0.6666666865348816 7.333333492279053 3.3333332538604736 135 206 235
5.333333492279053 -1.3333333730697632 1.3333333730697632 250 128 114
3.3333332538604736 0.6666666865348816 -0.6666666865348816 250 128 114
2 -1 2.0724163214568854E-16 250 128 114
2.6666667461395264 -2.6666667461395264 1.3333333730697632 250 128 114
3.3333332538604736 0.6666666865348816 -0.6666666865348816 250 128 114
4 2 1 250 128 114
2.6666667461395264 2.6666667461395264 2.6666667461395264 250 128 114
0.6666666865348816 0.6666666865348816 0.6666666865348816 250 128 114
3.3333332538604736 0.6666666865348816 -0.6666666865348816 250 128 114
5.333333492279053 -1.3333333730697632 1.3333333730697632 250 128 114
4 2 1 250 128 114
5.333333492279053 1.3333333730697632 2.6666667461395264 250 128 114
2.6666667461395264 2.6666667461395264 2.6666667461395264 250 128 114
0.6666666865348816 0.6666666865348816 0.6666666865348816 250 128 114
0.6666666865348816 -0.6666666865348816 3.3333332538604736 250 128 114
2 1 4 250 128 114
5.333333492279053 1.3333333730697632 2.6666667461395264 250 128 114
5.333333492279053 -1.3333333730697632 1.3333333730697632 250 128 114
4 -2 3 250 128 114
3.3333332538604736 -0.6666666865348816 4.666666507720947 250 128 114
3.3333332538604736 -0.6666666865348816 4.666666507720947 250 128 114
4 -2 3 250 128 114
2.6666667461395264 -2.6666667461395264 1.3333333730697632 250 128 114
0.6666666865348816 -0.6666666865348816 3.3333332538604736 250 128 114
2.6666667461395264 2.6666667461395264 2.6666667461395264 250 128 114
2 1 4 250 128 114
3.3333332538604736 -0.6666666865348816 4.666666507720947 250 128 114
5.333333492279053 1.3333333730697632 2.6666667461395264 250 128 114
2.6666667461395264 -2.6666667461395264 1.3333333730697632 250 128 114
2 -1 2.0724163214568854E-16 250 128 114
0.6666666865348816 0.6666666865348816 0.6666666865348816 250 128 114
0.6666666865348816 -0.6666666865348816 3.3333332538604736 250 128 114
3.3333332538604736 0.6666666865348816 -0.6666666865348816 250 128 114
2 -1 2.0724163214568854E-16 250 128 114
0.6666666865348816 0.6666666865348816 0.6666666865348816 250 128 114
0.6666666865348816 -0.6666666865348816 3.3333332538604736 250 128 114
2 1 4 250 128 114
3.3333332538604736 -0.6666666865348816 4.666666507720947 250 128 114
5.333333492279053 -1.3333333730697632 1.3333333730697632 250 128 114
4 -2 3 250 128 114
2.6666667461395264 -2.6666667461395264 1.3333333730697632 250 128 114
4 2 1 250 128 114
2.6666667461395264 2.6666667461395264 2.6666667461395264 250 128 114
5.333333492279053 1.3333333730697632 2.6666667461395264 250 128 114
2.6666667461395264 2.6666667461395264 2.6666667461395264 242 201 76
4.666666507720947 4.666666507720947 4.666666507720947 242 201 76
6 3 4 242 201 76
5.333333492279053 1.3333333730697632 2.6666667461395264 242 201 76
4.666666507720947 3.3333332538604736 7.333333492279053 242 201 76
3.3333332538604736 0.6666666865348816 7.333333492279053 242 201 76
1.3333333730697632 2.6666667461395264 5.333333492279053 242 201 76
3 4 6 242 201 76
1.3333333730697632 2.6666667461395264 5.333333492279053 242 201 76
3.3333332538604736 0.6666666865348816 7.333333492279053 242 201 76
3.3333332538604736 -0.6666666865348816 4.666666507720947 242 201 76
2 1 4 242 201 76
4.666666507720947 4.666666507720947 4.666666507720947 242 201 76
6 3 4 242 201 76
6.666666507720947 1.3333333730697632 5.333333492279053 242 201 76
4.666666507720947 3.3333332538604736 7.333333492279053 242 201 76
3.3333332538604736 -0.6666666865348816 4.666666507720947 242 201 76
5 0 6 242 201 76
6.666666507720947 1.3333333730697632 5.333333492279053 242 201 76
5.333333492279053 1.3333333730697632 2.6666667461395264 242 201 76
4.666666507720947 4.666666507720947 4.666666507720947 242 201 76
2.6666667461395264 2.6666667461395264 2.6666667461395264 242 201 76
1.3333333730697632 2.6666667461395264 5.333333492279053 242 201 76
3 4 6 242 201 76
4.666666507720947 3.3333332538604736 7.333333492279053 242 201 76
3.3333332538604736 0.6666666865348816 7.333333492279053 242 201 76
6.666666507720947 1.3333333730697632 5.333333492279053 242 201 76
5 0 6 242 201 76
5.333333492279053 1.3333333730697632 2.6666667461395264 242 201 76
2.6666667461395264 2.6666667461395264 2.6666667461395264 242 201 76
2 1 4 242 201 76
3.3333332538604736 -0.6666666865348816 4.666666507720947 242 201 76
3 4 6 242 201 76
4.666666507720947 3.3333332538604736 7.333333492279053 242 201 76
4.666666507720947 4.666666507720947 4.666666507720947 242 201 76
2 1 4 242 201 76
1.3333333730697632 2.6666667461395264 5.333333492279053 242 201 76
2.6666667461395264 2.6666667461395264 2.6666667461395264 242 201 76
6 3 4 242 201 76
5.333333492279053 1.3333333730697632 2.6666667461395264 242 201 76
6.666666507720947 1.3333333730697632 5.333333492279053 242 201 76
5 0 6 242 201 76
3.3333332538604736 -0.6666666865348816 4.666666507720947 242 201 76
3.3333332538604736 0.6666666865348816 7.333333492279053 242 201 76
6.666666507720947 6.666666507720947 6.666666507720947 56 85 99
4.666666507720947 4.666666507720947 4.666666507720947 56 85 99
3.3333332538604736 7.333333492279053 4.666666507720947 56 85 99
5 8 6 56 85 99
4.666666507720947 4.666666507720947 4.666666507720947 56 85 99
6.666666507720947 6.666666507720947 6.666666507720947 56 85 99
6 5 8 56 85 99
4.666666507720947 3.3333332538604736 7.333333492279053 56 85 99
5.333333492279053 6.666666507720947 9.333333015441895 56 85 99
2.6666667461395264 5.333333492279053 9.333333015441895 56 85 99
2 7 8 56 85 99
3.3333332538604736 8.666666984558105 7.333333492279053 56 85 99
4.666666507720947 4.666666507720947 4.666666507720947 56 85 99
3.3333332538604736 7.333333492279053 4.666666507720947 56 85 99
1.3333333730697632 5.333333492279053 6.666666507720947 56 85 99
3 4 6 56 85 99
2 7 8 56 85 99
3.3333332538604736 8.666666984558105 7.333333492279053 56 85 99
3.3333332538604736 7.333333492279053 4.666666507720947 56 85 99
1.3333333730697632 5.333333492279053 6.666666507720947 56 85 99
6 5 8 56 85 99
4.666666507720947 3.3333332538604736 7.333333492279053 56 85 99
2.6666667461395264 5.333333492279053 9.333333015441895 56 85 99
5.333333492279053 6.666666507720947 9.333333015441895 56 85 99
1.3333333730697632 5.333333492279053 6.666666507720947 56 85 99
3 4 6 56 85 99
4.666666507720947 3.3333332538604736 7.333333492279053 56 85 99
2.6666667461395264 5.333333492279053 9.333333015441895 56 85 99
5 8 6 56 85 99
6.666666507720947 6.666666507720947 6.666666507720947 56 85 99
5.333333492279053 6.666666507720947 9.333333015441895 56 85 99
3.3333332538604736 8.666666984558105 7.333333492279053 56 85 99
6 5 8 56 85 99
6.666666507720947 6.666666507720947 6.666666507720947 56 85 99
5.333333492279053 6.666666507720947 9.333333015441895 56 85 99
2 7 8 56 85 99
2.6666667461395264 5.333333492279053 9.333333015441895 56 85 99
1.3333333730697632 5.333333492279053 6.666666507720947 56 85 99
3.3333332538604736 7.333333492279053 4.666666507720947 56 85 99
5 8 6 56 85 99
3.3333332538604736 8.666666984558105 7.333333492279053 56 85 99
3 4 6 56 85 99
4.666666507720947 4.666666507720947 4.666666507720947 56 85 99
4.666666507720947 3.3333332538604736 7.333333492279053 56 85 99
4.666666507720947 3.3333332538604736 -0.6666666865348816 181 123 204
4 2 1 181 123 204
2.6666667461395264 2.6666667461395264 2.6666667461395264 181 123 204
2.6666667461395264 5.333333492279053 1.3333333730697632 181 123 204
4 2 1 181 123 204
4.666666507720947 3.3333332538604736 -0.6666666865348816 181 123 204
7.333333492279053 3.3333332538604736 0.6666666865348816 181 123 204
5.333333492279053 1.3333333730697632 2.6666667461395264 181 123 204
2.6666667461395264 2.6666667461395264 2.6666667461395264 181 123 204
2.6666667461395264 5.333333492279053 1.3333333730697632 181 123 204
4 6 3 181 123 204
4.666666507720947 4.666666507720947 4.666666507720947 181 123 204
7.333333492279053 3.3333332538604736 0.6666666865348816 181 123 204
5.333333492279053 1.3333333730697632 2.6666667461395264 181 123 204
6 3 4 181 123 204
7.333333492279053 4.666666507720947 3.3333332538604736 181 123 204
2.6666667461395264 5.333333492279053 1.3333333730697632 181 123 204
4.666666507720947 3.3333332538604736 -0.6666666865348816 181 123 204
6 5 3.700743525707937E-17 181 123 204
5.333333492279053 6.666666507720947 1.3333333730697632 181 123 204
4.666666507720947 4.666666507720947 4.666666507720947 181 123 204
2.6666667461395264 2.6666667461395264 2.6666667461395264 181 123 204
5.333333492279053 1.3333333730697632 2.6666667461395264 181 123 204
6 3 4 181 123 204
7.333333492279053 3.3333332538604736 0.6666666865348816 181 123 204
7.333333492279053 4.666666507720947 3.3333332538604736 181 123 204
5.333333492279053 6.666666507720947 1.3333333730697632 181 123 204
6 5 3.700743525707937E-17 181 123 204
4 6 3 181 123 204
4.666666507720947 4.666666507720947 4.666666507720947 181 123 204
7.333333492279053 4.666666507720947 3.3333332538604736 181 123 204
5.333333492279053 6.666666507720947 1.3333333730697632 181 123 204
4 6 3 181 123 204
2.6666667461395264 5.333333492279053 1.3333333730697632 181 123 204
5.333333492279053 6.666666507720947 1.3333333730697632 181 123 204
6 5 3.700743525707937E-17 181 123 204
4.666666507720947 3.3333332538604736 -0.6666666865348816 181 123 204
7.333333492279053 3.3333332538604736 0.6666666865348816 181 123 204
4 2 1 181 123 204
2.6666667461395264 2.6666667461395264 2.6666667461395264 181 123 204
5.333333492279053 1.3333333730697632 2.6666667461395264 181 123 204
7.333333492279053 4.666666507720947 3.3333332538604736 181 123 204
6 3 4 181 123 204
4.666666507720947 4.666666507720947 4.666666507720947 181 123 204
7.333333492279053 3.3333332538604736 0.6666666865348816 135 206 235
4.666666507720947 3.3333332538604736 -0.6666666865348816 135 206 235
4 2 1 135 206 235
5.333333492279053 1.3333333730697632 2.6666667461395264 135 206 235
8.666666984558105 0.6666666865348816 0.6666666865348816 135 206 235
6.666666507720947 -1.3333333730697632 -1.3333333730697632 135 206 235
5.333333492279053 -1.3333333730697632 1.3333333730697632 135 206 235
7 -7.549516779209301E-16 2 135 206 235
6.666666507720947 1.3333333730697632 -2.6666667461395264 135 206 235
4.666666507720947 3.3333332538604736 -0.6666666865348816 135 206 235
3.3333332538604736 0.6666666865348816 -0.6666666865348816 135 206 235
5 -6.51330855230641E-16 -2 135 206 235
8.666666984558105 0.6666666865348816 0.6666666865348816 135 206 235
6.666666507720947 -1.3333333730697632 -1.3333333730697632 135 206 235
6.666666507720947 1.3333333730697632 -2.6666667461395264 135 206 235
8 2 -1 135 206 235
5.333333492279053 -1.3333333730697632 1.3333333730697632 135 206 235
6.666666507720947 -1.3333333730697632 -1.3333333730697632 135 206 235
5 -6.51330855230641E-16 -2 135 206 235
3.3333332538604736 0.6666666865348816 -0.6666666865348816 135 206 235
4.666666507720947 3.3333332538604736 -0.6666666865348816 135 206 235
7.333333492279053 3.3333332538604736 0.6666666865348816 135 206 235
6.666666507720947 1.3333333730697632 -2.6666667461395264 135 206 235
8 2 -1 135 206 235
4 2 1 135 206 235
5.333333492279053 1.3333333730697632 2.6666667461395264 135 206 235
5.333333492279053 -1.3333333730697632 1.3333333730697632 135 206 235
3.3333332538604736 0.6666666865348816 -0.6666666865348816 135 206 235
7.333333492279053 3.3333332538604736 0.6666666865348816 135 206 235
5.333333492279053 1.3333333730697632 2.6666667461395264 135 206 235
7 -7.549516779209301E-16 2 135 206 235
8.666666984558105 0.6666666865348816 0.6666666865348816 135 206 235
7 -7.549516779209301E-16 2 135 206 235
5.333333492279053 -1.3333333730697632 1.3333333730697632 135 206 235
5.333333492279053 1.3333333730697632 2.6666667461395264 135 206 235
4.666666507720947 3.3333332538604736 -0.6666666865348816 135 206 235
4 2 1 135 206 235
3.3333332538604736 0.6666666865348816 -0.6666666865348816 135 206 235
8 2 -1 135 206 235
8.666666984558105 0.6666666865348816 0.6666666865348816 135 206 235
7.333333492279053 3.3333332538604736 0.6666666865348816 135 206 235
5 -6.51330855230641E-16 -2 135 206 235
6.666666507720947 1.3333333730697632 -2.6666667461395264 135 206 235
6.666666507720947 -1.3333333730697632 -1.3333333730697632 135 206 235
3.3333332538604736 7.333333492279053 4.666666507720947 63 191 127
5 8 6 63 191 127
6.666666507720947 6.666666507720947 6.666666507720947 63 191 127
4.666666507720947 4.666666507720947 4.666666507720947 63 191 127
3.3333332538604736 7.333333492279053 4.666666507720947 63 191 127
5 8 6 63 191 127
6.666666507720947 9.333333015441895 5.333333492279053 63 191 127
5.333333492279053 9.333333015441895 2.6666667461395264 63 191 127
8 6 5 63 191 127
6.666666507720947 6.666666507720947 6.666666507720947 63 191 127
6.666666507720947 9.333333015441895 5.333333492279053 63 191 127
8.666666984558105 7.333333492279053 3.3333332538604736 63 191 127
6.666666507720947 6.666666507720947 6.666666507720947 63 191 127
4.666666507720947 4.666666507720947 4.666666507720947 63 191 127
8 6 5 63 191 127
7.333333492279053 4.666666507720947 3.3333332538604736 63 191 127
6.666666507720947 9.333333015441895 5.333333492279053 63 191 127
5.333333492279053 9.333333015441895 2.6666667461395264 63 191 127
8.666666984558105 7.333333492279053 3.3333332538604736 63 191 127
7 8 2 63 191 127
8.666666984558105 7.333333492279053 3.3333332538604736 63 191 127
7 8 2 63 191 127
5.333333492279053 6.666666507720947 1.3333333730697632 63 191 127
7.333333492279053 4.666666507720947 3.3333332538604736 63 191 127
4.666666507720947 4.666666507720947 4.666666507720947 63 191 127
7.333333492279053 4.666666507720947 3.3333332538604736 63 191 127
5.333333492279053 6.666666507720947 1.3333333730697632 63 191 127
4 6 3 63 191 127
3.3333332538604736 7.333333492279053 4.666666507720947 63 191 127
5.333333492279053 9.333333015441895 2.6666667461395264 63 191 127
5.333333492279053 6.666666507720947 1.3333333730697632 63 191 127
4 6 3 63 191 127
5 8 6 63 191 127
6.666666507720947 6.666666507720947 6.666666507720947 63 191 127
6.666666507720947 9.333333015441895 5.333333492279053 63 191 127
8.666666984558105 7.333333492279053 3.3333332538604736 63 191 127
8 6 5 63 191 127
7.333333492279053 4.666666507720947 3.3333332538604736 63 191 127
4 6 3 63 191 127
4.666666507720947 4.666666507720947 4.666666507720947 63 191 127
3.3333332538604736 7.333333492279053 4.666666507720947 63 191 127
7 8 2 63 191 127
5.333333492279053 9.333333015441895 2.6666667461395264 63 191 127
5.333333492279053 6.666666507720947 1.3333333730697632 63 191 127
9.333333015441895 5.333333492279053 6.666666507720947 250 128 114
7.333333492279053 3.3333332538604736 8.666666984558105 250 128 114
6 5 8 250 128 114
6.666666507720947 6.666666507720947 6.666666507720947 250 128 114
7.333333492279053 3.3333332538604736 8.666666984558105 250 128 114
9.333333015441895 5.333333492279053 6.666666507720947 250 128 114
9.333333015441895 2.6666667461395264 5.333333492279053 250 128 114
8 2 7 250 128 114
4.666666507720947 3.3333332538604736 7.333333492279053 250 128 114
6.666666507720947 1.3333333730697632 5.333333492279053 250 128 114
6 3 4 250 128 114
4.666666507720947 4.666666507720947 4.666666507720947 250 128 114
6 3 4 250 128 114
6.666666507720947 1.3333333730697632 5.333333492279053 250 128 114
9.333333015441895 2.6666667461395264 5.333333492279053 250 128 114
7.333333492279053 4.666666507720947 3.3333332538604736 250 128 114
8 2 7 250 128 114
7.333333492279053 3.3333332538604736 8.666666984558105 250 128 114
4.666666507720947 3.3333332538604736 7.333333492279053 250 128 114
6.666666507720947 1.3333333730697632 5.333333492279053 250 128 114
7.333333492279053 4.666666507720947 3.3333332538604736 250 128 114
8 6 5 250 128 114
6.666666507720947 6.666666507720947 6.666666507720947 250 128 114
4.666666507720947 4.666666507720947 4.666666507720947 250 128 114
9.333333015441895 5.333333492279053 6.666666507720947 250 128 114
9.333333015441895 2.6666667461395264 5.333333492279053 250 128 114
7.333333492279053 4.666666507720947 3.3333332538604736 250 128 114
8 6 5 250 128 114
6.666666507720947 6.666666507720947 6.666666507720947 250 128 114
6 5 8 250 128 114
4.666666507720947 3.3333332538604736 7.333333492279053 250 128 114
4.666666507720947 4.666666507720947 4.666666507720947 250 128 114
8 6 5 250 128 114
6.666666507720947 6.666666507720947 6.666666507720947 250 128 114
9.333333015441895 5.333333492279053 6.666666507720947 250 128 114
7.333333492279053 3.3333332538604736 8.666666984558105 250 128 114
6 5 8 250 128 114
4.666666507720947 3.3333332538604736 7.333333492279053 250 128 114
8 2 7 250 128 114
9.333333015441895 2.6666667461395264 5.333333492279053 250 128 114
6.666666507720947 1.3333333730697632 5.333333492279053 250 128 114
6 3 4 250 128 114
4.666666507720947 4.666666507720947 4.666666507720947 250 128 114
7.333333492279053 4.666666507720947 3.3333332538604736 250 128 114
3 1 2 3
3 3 0 1
3 6 4 7
3 4 6 5
3 11 10 9
3 9 8 11
3 13 15 14
3 15 13 12
3 19 18 17
3 17 16 19
3 23 20 21
3 21 22 23
3 25 27 24
3 27 25 26
3 31 28 30
3 28 31 29
3 33 34 32
3 36 35 37
3 39 40 38
3 42 43 41
3 46 44 47
3 44 46 45
3 51 50 49
3 49 48 51
3 55 53 54
3 53 55 52
3 58 59 56
3 56 57 58
3 63 62 61
3 61 60 63
3 64 66 67
3 66 64 65
3 68 70 69
3 70 68 71
3 75 72 73
3 73 74 75
3 77 78 76
3 80 79 81
3 82 84 83
3 85 86 87
3 91 89 90
3 89 91 88
3 94 95 92
3 92 93 94
3 97 98 99
3 98 97 96
3 102 100 103
3 100 102 101
3 105 107 106
3 106 104 105
3 109 108 111
3 111 110 109
3 115 114 113
3 113 112 115
3 116 118 119
3 118 116 117
3 121 122 120
3 123 124 125
3 127 128 126
3 129 131 130
3 132 135 134
3 134 133 132
3 139 137 138
3 137 139 136
3 141 143 142
3 143 141 140
3 144 146 147
3 147 145 144
3 151 149 148
3 149 151 150
3 154 152 155
3 152 154 153
3 159 158 157
3 157 156 159
3 160 161 162
3 162 163 160
3 165 164 166
3 167 169 168
3 171 172 170
3 173 175 174
3 177 179 178
3 179 177 176
3 183 181 182
3 181 183 180
3 185 184 187
3 187 186 185
3 190 188 191
3 188 190 189
3 192 194 195
3 195 193 192
3 197 196 199
3 199 198 197
3 200 201 203
3 203 202 200
3 204 206 207
3 206 204 205
3 208 210 209
3 212 211 213
3 215 216 214
3 217 219 218
3 222 220 223
3 220 222 221
3 227 226 225
3 225 224 227
3 229 228 230
3 230 231 229
3 233 235 232
3 235 233 234
3 236 239 238
3 238 237 236
3 243 242 241
3 241 240 243
3 247 245 246
3 245 247 244
3 249 251 250
3 251 249 248
3 253 254 252
3 256 255 257
3 259 260 258
3 261 262 263
3 266 267 264
3 264 265 266
3 271 269 268
3 269 271 270
3 273 272 275
3 275 274 273
3 279 278 277
3 277 276 279
3 281 283 282
3 283 281 280
3 285 287 284
3 287 285 286
3 288 291 290
3 291 288 289
3 292 295 294
3 294 293 292
3 296 297 298
3 299 300 301
3 302 304 303
3 305 307 306
3 309 311 308
3 311 309 310
3 314 315 312
3 312 313 314
3 316 319 318
3 318 317 316
3 323 321 320
3 321 323 322
3 324 325 326
3 326 327 324
3 330 329 328
3 328 331 330
3 335 333 334
3 333 335 332
3 336 338 337
3 338 336 339
3 340 341 342
3 343 345 344
3 347 346 348
3 349 350 351
3 353 354 355
3 355 352 353
3 356 357 358
3 358 359 356
3 360 363 362
3 362 361 360
3 366 364 367
3 364 366 365
3 370 368 371
3 368 370 369
3 373 375 372
3 375 373 374
3 379 377 376
3 377 379 378
3 380 381 382
3 382 383 380
3 384 386 385
3 387 389 388
3 390 392 391
3 394 393 395
3 396 398 399
3 398 396 397
3 401 400 403
3 403 402 401
3 405 404 407
3 407 406 405
3 409 411 408
3 411 409 410
3 412 415 414
3 414 413 412
3 416 419 418
3 419 416 417
3 420 422 421
3 422 420 423
3 426 427 424
3 424 425 426
3 428 430 429
3 432 431 433
3 434 436 435
3 437 438 439
3 443 442 441
3 441 440 443
3 445 446 447
3 447 444 445
3 448 450 449
3 450 448 451
3 453 454 452
3 454 453 455
3 456 458 459
3 459 457 456
3 463 462 461
3 461 460 463
3 467 465 464
3 465 467 466
3 469 471 468
3 471 469 470
3 472 473 474
3 476 477 475
3 478 479 480
3 481 483 482
3 486 484 487
3 484 486 485
3 489 488 491
3 491 490 489
3 494 492 495
3 492 494 493
3 496 498 497
3 498 496 499
3 500 501 502
3 502 503 500
3 507 506 505
3 505 504 507
3 511 508 509
3 509 510 511
3 513 515 514
3 515 513 512
3 516 517 518
3 520 521 519
3 522 524 523
3 525 526 527
